<?xml version="1.0" encoding="UTF-8" standalone="no"?>
<svg width="512" height="512" viewBox="0 0 512 512" fill="none" xmlns="http://www.w3.org/2000/svg">
  <rect width="512" height="512" rx="100" fill="#4F46E5"/>
  <path d="M384 256C384 326.692 326.692 384 256 384C185.308 384 128 326.692 128 256C128 185.308 185.308 128 256 128C326.692 128 384 185.308 384 256Z" fill="white"/>
  <path d="M256 336C300.183 336 336 300.183 336 256C336 211.817 300.183 176 256 176C211.817 176 176 211.817 176 256C176 300.183 211.817 336 256 336Z" fill="#4F46E5"/>
  <path d="M416 176C416 193.673 401.673 208 384 208C366.327 208 352 193.673 352 176C352 158.327 366.327 144 384 144C401.673 144 416 158.327 416 176Z" fill="#10B981"/>
  <path d="M160 176C160 193.673 145.673 208 128 208C110.327 208 96 193.673 96 176C96 158.327 110.327 144 128 144C145.673 144 160 158.327 160 176Z" fill="#10B981"/>
  <path d="M160 336C160 353.673 145.673 368 128 368C110.327 368 96 353.673 96 336C96 318.327 110.327 304 128 304C145.673 304 160 318.327 160 336Z" fill="#10B981"/>
  <path d="M416 336C416 353.673 401.673 368 384 368C366.327 368 352 353.673 352 336C352 318.327 366.327 304 384 304C401.673 304 416 318.327 416 336Z" fill="#10B981"/>
  <path d="M256 112C264.837 112 272 104.837 272 96C272 87.1634 264.837 80 256 80C247.163 80 240 87.1634 240 96C240 104.837 247.163 112 256 112Z" fill="#10B981"/>
  <path d="M256 432C264.837 432 272 424.837 272 416C272 407.163 264.837 400 256 400C247.163 400 240 407.163 240 416C240 424.837 247.163 432 256 432Z" fill="#10B981"/>
  <path d="M96 256C96 264.837 88.8366 272 80 272C71.1634 272 64 264.837 64 256C64 247.163 71.1634 240 80 240C88.8366 240 96 247.163 96 256Z" fill="#10B981"/>
  <path d="M432 256C432 264.837 424.837 272 416 272C407.163 272 400 264.837 400 256C400 247.163 407.163 240 416 240C424.837 240 432 247.163 432 256Z" fill="#10B981"/>
</svg>
