<?xml version="1.0" encoding="UTF-8" standalone="no"?>
<svg width="32" height="32" viewBox="0 0 32 32" fill="none" xmlns="http://www.w3.org/2000/svg">
  <rect width="32" height="32" rx="6" fill="#4F46E5"/>
  <path d="M24 16C24 20.4183 20.4183 24 16 24C11.5817 24 8 20.4183 8 16C8 11.5817 11.5817 8 16 8C20.4183 8 24 11.5817 24 16Z" fill="white"/>
  <path d="M16 21C18.7614 21 21 18.7614 21 16C21 13.2386 18.7614 11 16 11C13.2386 11 11 13.2386 11 16C11 18.7614 13.2386 21 16 21Z" fill="#4F46E5"/>
  <path d="M26 11C26 12.1046 25.1046 13 24 13C22.8954 13 22 12.1046 22 11C22 9.89543 22.8954 9 24 9C25.1046 9 26 9.89543 26 11Z" fill="#10B981"/>
  <path d="M10 11C10 12.1046 9.10457 13 8 13C6.89543 13 6 12.1046 6 11C6 9.89543 6.89543 9 8 9C9.10457 9 10 9.89543 10 11Z" fill="#10B981"/>
  <path d="M10 21C10 22.1046 9.10457 23 8 23C6.89543 23 6 22.1046 6 21C6 19.8954 6.89543 19 8 19C9.10457 19 10 19.8954 10 21Z" fill="#10B981"/>
  <path d="M26 21C26 22.1046 25.1046 23 24 23C22.8954 23 22 22.1046 22 21C22 19.8954 22.8954 19 24 19C25.1046 19 26 19.8954 26 21Z" fill="#10B981"/>
</svg>
